<svg xmlns="http://www.w3.org/2000/svg" xmlns:xlink="http://www.w3.org/1999/xlink" width="200" zoomAndPan="magnify" viewBox="0 0 150 112.499997" height="150" preserveAspectRatio="xMidYMid meet" version="1.0"><defs><clipPath id="id1"><path d="M 18.871094 3.660156 L 130.871094 3.660156 L 130.871094 92 L 18.871094 92 Z M 18.871094 3.660156 " clip-rule="nonzero"/></clipPath><clipPath id="id2"><path d="M 20 95 L 103 95 L 103 108.195312 L 20 108.195312 Z M 20 95 " clip-rule="nonzero"/></clipPath><clipPath id="id3"><path d="M 106 93 L 130.871094 93 L 130.871094 108.195312 L 106 108.195312 Z M 106 93 " clip-rule="nonzero"/></clipPath></defs><g clip-path="url(#id1)"><path fill="#000000" d="M 93.519531 70.859375 L 93.519531 18.59375 L 127.089844 18.59375 L 127.089844 70.859375 Z M 86.0625 87.660156 L 63.683594 87.660156 L 63.683594 74.59375 L 73.007812 74.59375 L 73.007812 80.195312 C 73.007812 81.226562 73.839844 82.0625 74.871094 82.0625 C 75.902344 82.0625 76.734375 81.226562 76.734375 80.195312 L 76.734375 74.59375 L 86.0625 74.59375 Z M 22.652344 7.394531 L 89.789062 7.394531 L 89.789062 70.859375 L 22.652344 70.859375 Z M 127.089844 14.859375 L 93.519531 14.859375 L 93.519531 7.394531 L 127.089844 7.394531 Z M 128.953125 3.660156 L 20.789062 3.660156 C 19.757812 3.660156 18.921875 4.496094 18.921875 5.527344 L 18.921875 72.726562 C 18.921875 73.757812 19.757812 74.59375 20.789062 74.59375 L 59.953125 74.59375 L 59.953125 87.660156 L 56.222656 87.660156 L 56.222656 91.394531 L 93.519531 91.394531 L 93.519531 87.660156 L 89.789062 87.660156 L 89.789062 74.59375 L 128.953125 74.59375 C 129.984375 74.59375 130.820312 73.757812 130.820312 72.726562 L 130.820312 5.527344 C 130.820312 4.496094 129.984375 3.660156 128.953125 3.660156 " fill-opacity="1" fill-rule="nonzero"/></g><g clip-path="url(#id2)"><path fill="#000000" d="M 29.777344 98.863281 L 33.84375 98.863281 L 33.84375 104.460938 L 28.65625 104.460938 Z M 82.332031 98.863281 L 86.0625 98.863281 L 86.0625 104.460938 L 82.332031 104.460938 Z M 74.871094 98.863281 L 78.601562 98.863281 L 78.601562 104.460938 L 74.871094 104.460938 Z M 52.492188 98.863281 L 71.140625 98.863281 L 71.140625 104.460938 L 52.492188 104.460938 Z M 41.300781 104.460938 L 37.574219 104.460938 L 37.574219 98.863281 L 41.300781 98.863281 Z M 45.03125 98.863281 L 48.761719 98.863281 L 48.761719 104.460938 L 45.03125 104.460938 Z M 94.976562 104.460938 L 89.789062 104.460938 L 89.789062 98.863281 L 93.855469 98.863281 Z M 97.214844 96.628906 C 97.039062 95.757812 96.273438 95.128906 95.386719 95.128906 L 28.246094 95.128906 C 27.359375 95.128906 26.59375 95.757812 26.417969 96.628906 L 24.855469 104.460938 L 20.789062 104.460938 L 20.789062 108.195312 L 102.84375 108.195312 L 102.84375 104.460938 L 98.777344 104.460938 L 97.214844 96.628906 " fill-opacity="1" fill-rule="nonzero"/></g><path fill="#000000" d="M 39.886719 24.84375 L 28.695312 37.914062 C 28.097656 38.613281 28.097656 39.644531 28.695312 40.34375 L 39.886719 53.410156 L 42.71875 50.980469 L 32.570312 39.128906 L 42.71875 27.277344 L 39.886719 24.84375 " fill-opacity="1" fill-rule="nonzero"/><path fill="#000000" d="M 79.917969 37.808594 L 66.863281 24.742188 L 64.226562 27.378906 L 75.964844 39.128906 L 64.226562 50.875 L 66.863281 53.515625 L 79.917969 40.445312 C 80.648438 39.71875 80.648438 38.535156 79.917969 37.808594 " fill-opacity="1" fill-rule="nonzero"/><path fill="#000000" d="M 47.015625 53.40625 L 50.507812 54.714844 L 61.699219 24.847656 L 58.207031 23.539062 L 47.015625 53.40625 " fill-opacity="1" fill-rule="nonzero"/><path fill="#000000" d="M 99.117188 12.992188 C 100.144531 12.992188 100.980469 12.15625 100.980469 11.125 C 100.980469 10.097656 100.144531 9.261719 99.117188 9.261719 C 98.085938 9.261719 97.25 10.097656 97.25 11.125 C 97.25 12.15625 98.085938 12.992188 99.117188 12.992188 " fill-opacity="1" fill-rule="nonzero"/><path fill="#000000" d="M 104.710938 12.992188 C 105.738281 12.992188 106.574219 12.15625 106.574219 11.125 C 106.574219 10.097656 105.738281 9.261719 104.710938 9.261719 C 103.679688 9.261719 102.84375 10.097656 102.84375 11.125 C 102.84375 12.15625 103.679688 12.992188 104.710938 12.992188 " fill-opacity="1" fill-rule="nonzero"/><path fill="#000000" d="M 110.304688 12.992188 C 111.335938 12.992188 112.167969 12.15625 112.167969 11.125 C 112.167969 10.097656 111.335938 9.261719 110.304688 9.261719 C 109.273438 9.261719 108.441406 10.097656 108.441406 11.125 C 108.441406 12.15625 109.273438 12.992188 110.304688 12.992188 " fill-opacity="1" fill-rule="nonzero"/><path fill="#000000" d="M 97.25 46.59375 L 100.980469 46.59375 L 100.980469 42.859375 L 97.25 42.859375 L 97.25 46.59375 " fill-opacity="1" fill-rule="nonzero"/><path fill="#000000" d="M 112.167969 42.859375 L 104.710938 42.859375 L 104.710938 46.59375 L 112.167969 46.59375 L 112.167969 42.859375 " fill-opacity="1" fill-rule="nonzero"/><path fill="#000000" d="M 115.898438 46.59375 L 123.359375 46.59375 L 123.359375 42.859375 L 115.898438 42.859375 L 115.898438 46.59375 " fill-opacity="1" fill-rule="nonzero"/><path fill="#000000" d="M 97.25 55.925781 L 100.980469 55.925781 L 100.980469 52.195312 L 97.25 52.195312 L 97.25 55.925781 " fill-opacity="1" fill-rule="nonzero"/><path fill="#000000" d="M 110.304688 52.195312 L 104.710938 52.195312 L 104.710938 55.925781 L 110.304688 55.925781 L 110.304688 52.195312 " fill-opacity="1" fill-rule="nonzero"/><path fill="#000000" d="M 114.035156 55.925781 L 123.359375 55.925781 L 123.359375 52.195312 L 114.035156 52.195312 L 114.035156 55.925781 " fill-opacity="1" fill-rule="nonzero"/><path fill="#000000" d="M 97.25 27.925781 L 100.980469 27.925781 L 100.980469 24.195312 L 97.25 24.195312 L 97.25 27.925781 " fill-opacity="1" fill-rule="nonzero"/><path fill="#000000" d="M 115.898438 24.195312 L 104.710938 24.195312 L 104.710938 27.925781 L 115.898438 27.925781 L 115.898438 24.195312 " fill-opacity="1" fill-rule="nonzero"/><path fill="#000000" d="M 119.628906 27.925781 L 123.359375 27.925781 L 123.359375 24.195312 L 119.628906 24.195312 L 119.628906 27.925781 " fill-opacity="1" fill-rule="nonzero"/><path fill="#000000" d="M 104.710938 37.261719 L 123.359375 37.261719 L 123.359375 33.527344 L 104.710938 33.527344 L 104.710938 37.261719 " fill-opacity="1" fill-rule="nonzero"/><path fill="#000000" d="M 97.25 37.261719 L 100.980469 37.261719 L 100.980469 33.527344 L 97.25 33.527344 L 97.25 37.261719 " fill-opacity="1" fill-rule="nonzero"/><path fill="#000000" d="M 104.710938 65.261719 L 123.359375 65.261719 L 123.359375 61.527344 L 104.710938 61.527344 L 104.710938 65.261719 " fill-opacity="1" fill-rule="nonzero"/><path fill="#000000" d="M 97.25 65.261719 L 100.980469 65.261719 L 100.980469 61.527344 L 97.25 61.527344 L 97.25 65.261719 " fill-opacity="1" fill-rule="nonzero"/><g clip-path="url(#id3)"><path fill="#000000" d="M 110.304688 104.460938 C 110.304688 103.433594 111.140625 102.59375 112.167969 102.59375 C 114.601562 102.59375 116.675781 101.035156 117.445312 98.863281 L 122.585938 98.863281 L 124.996094 101.277344 C 125.894531 102.171875 126.523438 103.269531 126.84375 104.460938 Z M 124.679688 95.675781 C 124.328125 95.324219 123.855469 95.128906 123.359375 95.128906 L 121.496094 95.128906 L 121.496094 93.261719 L 117.765625 93.261719 L 117.765625 95.128906 L 115.898438 95.128906 C 114.871094 95.128906 114.035156 95.964844 114.035156 96.996094 C 114.035156 98.023438 113.199219 98.863281 112.167969 98.863281 C 109.085938 98.863281 106.574219 101.375 106.574219 104.460938 L 106.574219 106.328125 C 106.574219 107.359375 107.410156 108.195312 108.441406 108.195312 L 128.953125 108.195312 C 129.984375 108.195312 130.820312 107.359375 130.820312 106.328125 C 130.820312 103.421875 129.6875 100.691406 127.636719 98.636719 L 124.679688 95.675781 " fill-opacity="1" fill-rule="nonzero"/></g></svg>